<?xml version="1.0" standalone="no"?><!DOCTYPE svg PUBLIC "-//W3C//DTD SVG 1.1//EN" "http://www.w3.org/Graphics/SVG/1.1/DTD/svg11.dtd"><svg class="icon" width="200px" height="200.00px" viewBox="0 0 1024 1024" version="1.1" xmlns="http://www.w3.org/2000/svg"><path fill="#333333" d="M627.2 343.04H252.416c-7.168 0-12.8 5.632-12.8 12.8S245.76 368.64 252.416 368.64h374.784c7.168 0 12.8-5.632 12.8-12.8s-5.632-12.8-12.8-12.8z m0 118.784H252.416c-7.168 0-12.8 5.632-12.8 12.8s5.632 12.8 12.8 12.8h374.784c7.168 0 12.8-5.632 12.8-12.8s-5.632-12.8-12.8-12.8zM435.2 580.608H252.416c-7.168 0-12.8 5.632-12.8 12.8s5.632 12.8 12.8 12.8H435.2c7.168 0 12.8-5.632 12.8-12.8s-5.632-12.8-12.8-12.8zM865.792 78.848H460.288c-22.016 0-40.448 17.92-40.448 40.448v31.232H352.256c-24.064 0-44.544 17.408-49.152 39.936h-143.36c-23.552 0-42.496 18.944-42.496 42.496v669.184c0 23.552 18.944 42.496 42.496 42.496h564.736c23.552 0 42.496-18.944 42.496-42.496v-70.656h98.816c22.016 0 40.448-17.92 40.448-40.448V118.784c0-22.016-17.92-39.936-40.448-39.936z m-537.6 121.344c0-13.312 10.752-24.576 24.576-24.576h179.2c13.312 0 24.576 10.752 24.576 24.576v5.12c0 13.312-10.752 24.576-24.576 24.576h-179.2c-13.312 0-24.576-10.752-24.576-24.576v-5.12z m413.184 615.424c0 1.024-0.512 2.048-0.512 3.072s0 2.048 0.512 3.072v80.384c0 9.216-7.68 16.896-16.896 16.896H159.744c-9.216 0-16.896-7.68-16.896-16.896V232.96c0-9.216 7.68-16.896 16.896-16.896h143.872c5.12 22.528 25.088 39.424 48.64 39.424h179.2c24.064 0 44.032-16.896 48.64-39.424h143.872c9.216 0 16.896 7.68 16.896 16.896l0.512 582.656z m139.264-24.576c0 8.192-6.656 14.848-14.848 14.848h-98.816V232.96c0-23.552-18.944-42.496-42.496-42.496h-143.872c-4.608-23.04-24.576-39.936-49.152-39.936H445.44v-31.232c0-8.192 6.656-14.848 14.848-14.848h406.016c8.192 0 14.848 6.656 14.848 14.848l-0.512 671.744z" /></svg>